<?xml version="1.0" encoding="utf-8"?>
<!-- Generator: Adobe Illustrator 19.0.0, SVG Export Plug-In . SVG Version: 6.00 Build 0)  -->
<svg version="1.1" id="Layer_1" xmlns="http://www.w3.org/2000/svg" xmlns:xlink="http://www.w3.org/1999/xlink" x="0px" y="0px"
	 viewBox="0 0 56 194" style="enable-background:new 0 0 56 194;" xml:space="preserve">
<style type="text/css">
	.st0{fill-rule:evenodd;clip-rule:evenodd;fill:#D5D5D5;}
	.st1{fill-rule:evenodd;clip-rule:evenodd;fill:#575CA9;}
	.st2{fill:#575CA9;}
</style>
<path class="st0" d="M56.5,96.5C56.5,96.6,56.5,96.6,56.5,96.5C56.5,96.6,56.5,96.6,56.5,96.5c-0.1,43.4-56,44.7-56,96.8
	c0-15.2,0-56,0-96.7c0,0,0-0.1,0-0.1c0-40.9,0-81.8,0-97C0.5,51.7,56.4,53,56.5,96.5C56.5,96.5,56.5,96.5,56.5,96.5
	C56.5,96.5,56.5,96.5,56.5,96.5z"/>
<g>
	<g id="XMLID_29_">
		<path id="XMLID_30_" class="st1" d="M28.5,76.5c-11,0-20,9-20,20c0,11,9,20,20,20s20-9,20-20C48.5,85.5,39.5,76.5,28.5,76.5z
			 M28.5,112.5c-8.8,0-16-7.2-16-16s7.2-16,16-16s16,7.2,16,16S37.3,112.5,28.5,112.5z"/>
	</g>
</g>
<path id="XMLID_2_" class="st2" d="M36.6,97.4l-12.1,7.1c-0.2,0.1-0.5,0.2-0.7,0.2c-0.2,0-0.5-0.1-0.7-0.2c-0.4-0.3-0.7-0.7-0.7-1.3
	V89c0-0.5,0.3-1,0.7-1.3c0.4-0.2,1-0.2,1.4,0L36.6,95c0.4,0.2,0.7,0.7,0.7,1.2C37.3,96.7,37.1,97.2,36.6,97.4z"/>
</svg>
